<svg width="33" height="33" viewBox="0 0 33 33" fill="none" xmlns="http://www.w3.org/2000/svg">
<path d="M16.2675 3.07275C8.85544 3.07275 2.83984 9.08835 2.83984 16.5004C2.83984 23.9125 8.85544 29.9281 16.2675 29.9281C23.6796 29.9281 29.6952 23.9125 29.6952 16.5004C29.6952 9.08835 23.6796 3.07275 16.2675 3.07275ZM16.2675 8.44382C18.8591 8.44382 20.9672 10.552 20.9672 13.1435C20.9672 15.7351 18.8591 17.8432 16.2675 17.8432C13.676 17.8432 11.5678 15.7351 11.5678 13.1435C11.5678 10.552 13.676 8.44382 16.2675 8.44382ZM16.2675 27.2426C13.5417 27.2426 10.3191 26.1415 8.02293 23.3754C10.3749 21.5301 13.278 20.5271 16.2675 20.5271C19.257 20.5271 22.1601 21.5301 24.5121 23.3754C22.216 26.1415 18.9933 27.2426 16.2675 27.2426Z" fill="#163B5C"/>
</svg>
