<svg width="39" height="39" viewBox="0 0 39 39" fill="none" xmlns="http://www.w3.org/2000/svg">
<path d="M24.8552 22.6655H23.605L23.1618 22.2383C24.1509 21.0893 24.8737 19.7359 25.2786 18.2749C25.6835 16.814 25.7605 15.2816 25.504 13.7875C24.7602 9.38798 21.0887 5.87472 16.6576 5.33665C15.0997 5.13957 13.5175 5.30148 12.0318 5.80998C10.5462 6.31848 9.19656 7.16009 8.08623 8.27043C6.97589 9.38077 6.13427 10.7304 5.62577 12.216C5.11727 13.7017 4.95537 15.2839 5.15245 16.8418C5.69052 21.2729 9.20377 24.9444 13.6033 25.6882C15.0974 25.9447 16.6298 25.8677 18.0907 25.4628C19.5517 25.0579 20.9051 24.3351 22.0541 23.346L22.4813 23.7892V25.0394L29.2072 31.7652C29.856 32.414 30.9163 32.414 31.5652 31.7652C32.214 31.1163 32.214 30.056 31.5652 29.4072L24.8552 22.6655ZM15.3599 22.6655C11.4193 22.6655 8.23842 19.4846 8.23842 15.5441C8.23842 11.6035 11.4193 8.42262 15.3599 8.42262C19.3004 8.42262 22.4813 11.6035 22.4813 15.5441C22.4813 19.4846 19.3004 22.6655 15.3599 22.6655Z" fill="#163B5C"/>
</svg>
