<svg width="32" height="32" viewBox="0 0 32 32" fill="none" xmlns="http://www.w3.org/2000/svg">
<path d="M11.9999 6.66664C11.6463 6.66664 11.3072 6.80711 11.0571 7.05716C10.8071 7.30721 10.6666 7.64635 10.6666 7.99997C10.6666 8.35359 10.8071 8.69273 11.0571 8.94278C11.3072 9.19283 11.6463 9.3333 11.9999 9.3333C12.3535 9.3333 12.6927 9.19283 12.9427 8.94278C13.1928 8.69273 13.3333 8.35359 13.3333 7.99997C13.3333 7.64635 13.1928 7.30721 12.9427 7.05716C12.6927 6.80711 12.3535 6.66664 11.9999 6.66664ZM8.22659 6.66664C8.50205 5.88593 9.0129 5.20988 9.68872 4.73169C10.3645 4.2535 11.172 3.9967 11.9999 3.9967C12.8278 3.9967 13.6353 4.2535 14.3111 4.73169C14.9869 5.20988 15.4978 5.88593 15.7733 6.66664H25.3333C25.6869 6.66664 26.026 6.80711 26.2761 7.05716C26.5261 7.30721 26.6666 7.64635 26.6666 7.99997C26.6666 8.35359 26.5261 8.69273 26.2761 8.94278C26.026 9.19283 25.6869 9.3333 25.3333 9.3333H15.7733C15.4978 10.114 14.9869 10.7901 14.3111 11.2683C13.6353 11.7464 12.8278 12.0032 11.9999 12.0032C11.172 12.0032 10.3645 11.7464 9.68872 11.2683C9.0129 10.7901 8.50205 10.114 8.22659 9.3333H6.66659C6.31296 9.3333 5.97383 9.19283 5.72378 8.94278C5.47373 8.69273 5.33325 8.35359 5.33325 7.99997C5.33325 7.64635 5.47373 7.30721 5.72378 7.05716C5.97383 6.80711 6.31296 6.66664 6.66659 6.66664H8.22659ZM19.9999 14.6666C19.6463 14.6666 19.3072 14.8071 19.0571 15.0572C18.8071 15.3072 18.6666 15.6463 18.6666 16C18.6666 16.3536 18.8071 16.6927 19.0571 16.9428C19.3072 17.1928 19.6463 17.3333 19.9999 17.3333C20.3535 17.3333 20.6927 17.1928 20.9427 16.9428C21.1928 16.6927 21.3333 16.3536 21.3333 16C21.3333 15.6463 21.1928 15.3072 20.9427 15.0572C20.6927 14.8071 20.3535 14.6666 19.9999 14.6666ZM16.2266 14.6666C16.5021 13.8859 17.0129 13.2099 17.6887 12.7317C18.3645 12.2535 19.172 11.9967 19.9999 11.9967C20.8278 11.9967 21.6353 12.2535 22.3111 12.7317C22.9869 13.2099 23.4978 13.8859 23.7733 14.6666H25.3333C25.6869 14.6666 26.026 14.8071 26.2761 15.0572C26.5261 15.3072 26.6666 15.6463 26.6666 16C26.6666 16.3536 26.5261 16.6927 26.2761 16.9428C26.026 17.1928 25.6869 17.3333 25.3333 17.3333H23.7733C23.4978 18.114 22.9869 18.7901 22.3111 19.2683C21.6353 19.7464 20.8278 20.0032 19.9999 20.0032C19.172 20.0032 18.3645 19.7464 17.6887 19.2683C17.0129 18.7901 16.5021 18.114 16.2266 17.3333H6.66659C6.31296 17.3333 5.97383 17.1928 5.72378 16.9428C5.47373 16.6927 5.33325 16.3536 5.33325 16C5.33325 15.6463 5.47373 15.3072 5.72378 15.0572C5.97383 14.8071 6.31296 14.6666 6.66659 14.6666H16.2266ZM11.9999 22.6666C11.6463 22.6666 11.3072 22.8071 11.0571 23.0572C10.8071 23.3072 10.6666 23.6464 10.6666 24C10.6666 24.3536 10.8071 24.6927 11.0571 24.9428C11.3072 25.1928 11.6463 25.3333 11.9999 25.3333C12.3535 25.3333 12.6927 25.1928 12.9427 24.9428C13.1928 24.6927 13.3333 24.3536 13.3333 24C13.3333 23.6464 13.1928 23.3072 12.9427 23.0572C12.6927 22.8071 12.3535 22.6666 11.9999 22.6666ZM8.22659 22.6666C8.50205 21.8859 9.0129 21.2099 9.68872 20.7317C10.3645 20.2535 11.172 19.9967 11.9999 19.9967C12.8278 19.9967 13.6353 20.2535 14.3111 20.7317C14.9869 21.2099 15.4978 21.8859 15.7733 22.6666H25.3333C25.6869 22.6666 26.026 22.8071 26.2761 23.0572C26.5261 23.3072 26.6666 23.6464 26.6666 24C26.6666 24.3536 26.5261 24.6927 26.2761 24.9428C26.026 25.1928 25.6869 25.3333 25.3333 25.3333H15.7733C15.4978 26.114 14.9869 26.7901 14.3111 27.2683C13.6353 27.7464 12.8278 28.0032 11.9999 28.0032C11.172 28.0032 10.3645 27.7464 9.68872 27.2683C9.0129 26.7901 8.50205 26.114 8.22659 25.3333H6.66659C6.31296 25.3333 5.97383 25.1928 5.72378 24.9428C5.47373 24.6927 5.33325 24.3536 5.33325 24C5.33325 23.6464 5.47373 23.3072 5.72378 23.0572C5.97383 22.8071 6.31296 22.6666 6.66659 22.6666H8.22659Z" fill="black"/>
</svg>
