<svg width="38" height="37" viewBox="0 0 38 37" fill="none" xmlns="http://www.w3.org/2000/svg">
<path d="M11.5557 33.8444C10.7117 33.8444 9.98939 33.5441 9.38885 32.9436C8.78729 32.3421 8.48651 31.6193 8.48651 30.7752C8.48651 29.9312 8.78729 29.2084 9.38885 28.6069C9.98939 28.0063 10.7117 27.7061 11.5557 27.7061C12.3997 27.7061 13.122 28.0063 13.7225 28.6069C14.3241 29.2084 14.6249 29.9312 14.6249 30.7752C14.6249 31.6193 14.3241 32.3421 13.7225 32.9436C13.122 33.5441 12.3997 33.8444 11.5557 33.8444ZM26.9016 33.8444C26.0576 33.8444 25.3353 33.5441 24.7348 32.9436C24.1332 32.3421 23.8324 31.6193 23.8324 30.7752C23.8324 29.9312 24.1332 29.2084 24.7348 28.6069C25.3353 28.0063 26.0576 27.7061 26.9016 27.7061C27.7456 27.7061 28.4684 28.0063 29.07 28.6069C29.6705 29.2084 29.9708 29.9312 29.9708 30.7752C29.9708 31.6193 29.6705 32.3421 29.07 32.9436C28.4684 33.5441 27.7456 33.8444 26.9016 33.8444ZM11.5557 26.1715C10.4047 26.1715 9.53515 25.6661 8.94689 24.6553C8.35863 23.6455 8.33305 22.6419 8.87016 21.6444L10.9419 17.8847L5.41733 6.22177H3.84437C3.40957 6.22177 3.0515 6.07445 2.77016 5.77981C2.48882 5.48619 2.34814 5.12198 2.34814 4.68718C2.34814 4.25238 2.49547 3.88766 2.79011 3.59302C3.08373 3.2994 3.44794 3.15259 3.88274 3.15259H6.37645C6.65779 3.15259 6.92634 3.22932 7.18211 3.38278C7.43787 3.53624 7.6297 3.75364 7.75758 4.03498L8.79343 6.22177H31.4287C32.1192 6.22177 32.5924 6.47754 32.8482 6.98907C33.1039 7.5006 33.0911 8.0377 32.8098 8.60039L27.362 18.4218C27.0806 18.9333 26.7098 19.3297 26.2494 19.6111C25.789 19.8924 25.2647 20.0331 24.6765 20.0331H13.2437L11.5557 23.1023H28.4746C28.9094 23.1023 29.2674 23.2491 29.5488 23.5427C29.8301 23.8373 29.9708 24.2021 29.9708 24.6369C29.9708 25.0717 29.8235 25.4359 29.5288 25.7295C29.2352 26.0241 28.871 26.1715 28.4362 26.1715H11.5557Z" fill="#163B5C"/>
</svg>
